<svg xmlns="http://www.w3.org/2000/svg" width="168.398" height="53.633" viewBox="0 0 44.555 14.19"><g transform="translate(-48.943 -115.07)"><g aria-label="armin" style="line-height:1.25;-inkscape-font-specification:Tahoma" font-weight="400" font-size="10.185" font-family="Tahoma" letter-spacing="0" word-spacing="0" stroke-width=".255"><path d="M52.57 119.248v-1.483q-.346.028-.878.081-.527.048-.853.139-.387.11-.64.34-.254.225-.254.631 0 .46.28.694.278.235.816.235.46 0 .832-.182.372-.187.697-.455zm0 .747q-.118.081-.32.23-.196.143-.382.23-.259.124-.502.19-.237.068-.671.068-.357 0-.677-.125-.32-.124-.564-.349-.232-.22-.372-.54-.14-.326-.14-.685 0-.555.254-.943.253-.392.801-.622.486-.206 1.147-.283.662-.08 1.426-.12v-.171q0-.316-.103-.508-.103-.196-.29-.301-.185-.11-.454-.144-.269-.038-.553-.038-.336 0-.79.096-.455.09-.91.268h-.057v-.915q.269-.071.77-.157.501-.087.992-.087.594 0 1.003.087.408.086.734.31.315.22.47.57.155.35.155.852v3.656h-.967zM57.832 116.185h-.052q-.108-.028-.232-.033-.12-.01-.29-.01-.392 0-.78.158t-.734.47v3.794h-.971v-5.345h.971v.794q.532-.435.925-.613.398-.181.77-.181.15 0 .222.01.078.004.17.018zM65.15 120.565v-3.092q0-.369-.032-.68-.03-.316-.129-.493-.103-.191-.295-.282-.19-.091-.516-.091-.3 0-.646.172-.341.168-.708.488l.01.197q.01.11.01.263v3.517h-.971v-3.091q0-.369-.031-.68-.031-.316-.13-.493-.103-.191-.294-.282-.191-.091-.517-.091-.315 0-.661.182-.346.182-.672.464v3.991h-.971v-5.345h.971v.593q.382-.354.755-.546.377-.196.826-.196.512 0 .905.216.398.215.604.708.44-.455.858-.69.419-.234.91-.234.372 0 .677.11.305.106.532.345.232.244.356.608.13.363.13.914v3.517zM67.64 115.219v4.779a1.382 1.436 0 0 1 .502-.099 1.382 1.436 0 0 1 .469.087v-4.767zM74.574 120.565h-.971v-3.044q0-.369-.042-.685-.036-.32-.144-.512-.12-.2-.331-.297-.212-.1-.579-.1-.361 0-.75.182-.381.177-.748.464v3.992h-.972v-5.346h.972v.593q.434-.359.857-.55.424-.192.894-.192.853 0 1.334.522.48.517.48 1.503z" style="-inkscape-font-specification:Tahoma"/></g><g aria-label="vieweg" style="line-height:1.25;-inkscape-font-specification:Tahoma" font-weight="400" font-size="10.185" font-family="Tahoma" letter-spacing="0" word-spacing="0" stroke-width=".255"><path d="M67.119 121.89l-2.176 5.346h-.873l-2.16-5.346h1.049l1.581 4.126 1.566-4.126zM67.64 122.406v4.83h.97v-4.809a1.382 1.436 0 0 1-.456.083 1.382 1.436 0 0 1-.515-.104zM72.543 127.36q-1.38 0-2.144-.717-.76-.723-.76-2.049 0-1.306.74-2.077.738-.775 1.932-.775.537 0 .95.143.414.144.724.45.31.307.476.752.165.44.165 1.081v.488h-4q0 .934.507 1.427.506.493 1.4.493.32 0 .625-.067.31-.067.558-.173.264-.11.445-.21.18-.106.3-.197h.056v.982q-.17.062-.423.158-.254.09-.455.143-.284.072-.517.11-.227.039-.579.039zm1.137-3.393q-.01-.364-.093-.627-.082-.263-.237-.445-.171-.2-.44-.306-.263-.105-.656-.105-.388 0-.661.11-.27.105-.491.31-.217.211-.331.47-.114.253-.145.593zM82.615 121.89l-1.462 5.346h-.9l-1.41-4.12-1.4 4.12h-.895l-1.478-5.346h1.013l1.018 4.14 1.37-4.14h.8l1.406 4.14.961-4.14zM85.98 127.36q-1.38 0-2.145-.717-.76-.723-.76-2.049 0-1.306.739-2.077.739-.775 1.933-.775.537 0 .95.143.414.144.724.45.31.307.475.752.166.44.166 1.081v.488h-4q0 .934.507 1.427.506.493 1.4.493.32 0 .625-.067.31-.067.558-.173.264-.11.445-.21.18-.106.3-.197h.056v.982q-.17.062-.423.158-.254.09-.455.143-.284.072-.517.11-.227.039-.579.039zm1.136-3.393q-.01-.364-.093-.627t-.238-.445q-.17-.2-.439-.306-.263-.105-.656-.105-.388 0-.662.11-.268.105-.49.31-.218.211-.331.47-.114.253-.145.593zM92.527 125.786v-2.934q-.362-.163-.672-.23-.305-.071-.61-.071-.739 0-1.163.502-.423.503-.423 1.44 0 .89.32 1.355.326.464 1.05.464.376 0 .774-.138.403-.14.724-.388zm-3.266 2.307q.098.038.29.1.19.067.433.125.269.062.496.1.228.038.496.038.45 0 .76-.11.315-.11.491-.306.165-.196.233-.455.067-.258.067-.588v-.47q-.393.317-.77.47-.378.148-.946.148-.987 0-1.57-.68-.585-.68-.585-1.952 0-.665.202-1.178.201-.516.542-.875.326-.345.77-.532.445-.186.92-.186.45 0 .775.1.33.096.662.278l.057-.23h.914v4.738q0 1.36-.64 1.996-.641.637-1.96.637-.423 0-.867-.063-.44-.062-.822-.167v-.938z" style="-inkscape-font-specification:Tahoma"/></g><ellipse cx="68.13" cy="121.241" rx=".817" ry=".824" fill="#d12c00"/></g></svg>
